<svg xmlns="http://www.w3.org/2000/svg" viewBox="0 0 500 500"><g id="freepik--Plants--inject-140"><g id="freepik--plants--inject-140"><path d="M463.57,229.72c-3.22,4.09-8,9.62-12.22,16.57a62.15,62.15,0,0,0-9.48,27.41l-4.48-2.59-1-.58-1.64-.94h0c-.39-5.61-.94-15.86.58-23.47,2.68-13.39,8.13-22.69,16.66-26.82S470.8,220.47,463.57,229.72Z" style="fill:#f0f0f0"></path><path d="M457.9,222.77c-9.45,6.45-17.59,18-19.91,39.49-.3,2.78-.51,5.73-.6,8.85l-1-.58q.14-3.82.48-7.31h0c2.21-22.5,10.7-34.63,20.44-41.27a.5.5,0,0,1,.57.83Z" style="fill:#fff"></path><path d="M475.61,247.67c-.15,1.61-1.43,2.87-2.66,3.93s-2.56,2.2-2.88,3.79c-.64,3.21,3.2,6.11,2.42,9.28a5.07,5.07,0,0,1-2.63,3,33.55,33.55,0,0,1-3.12,1.38,12.91,12.91,0,0,1-1.57.4,7.47,7.47,0,0,0-4.28,2c-1.71,1.92-1.45,4.84-2,7.35a7.19,7.19,0,0,1-1.88,3.59l-11.79-6.81-.69-.4-2.62-1.5-4.48-2.59-1-.58-1.64-.94a9.08,9.08,0,0,1,1.77-5.95,4.58,4.58,0,0,1,.35-.42h0a7.08,7.08,0,0,1,1.1-.95c1.93-1.39,4.42-2,5.82-4,1.59-2.25.6-5.45,1.57-8s3.5-3.49,6-4l.14,0c2.58-.49,5.18.52,7.62-.4s4.69-2.42,7.22-3.08a8.44,8.44,0,0,1,7.34,1.12A4.52,4.52,0,0,1,475.61,247.67Z" style="fill:#e0e0e0"></path><path d="M470.14,246.41c-3.29.78-12.79,5-19.12,13.65a20.15,20.15,0,0,1,16.06,1.16.35.35,0,0,1,.11.51.34.34,0,0,1-.29.16.35.35,0,0,1-.2-.05,19.45,19.45,0,0,0-16.4-.75,30.16,30.16,0,0,0-5.12,14.51l-.69-.4a30.83,30.83,0,0,1,5.22-14.53.38.38,0,0,1,.11-.16c6.44-9.41,16.68-14,20.15-14.81a.36.36,0,0,1,.44.27A.36.36,0,0,1,470.14,246.41Z" style="fill:#fff"></path></g><g id="freepik--plants--inject-140"><path d="M78.77,255.52l-1.61,1.15-.85.49-1.16.68-2.46,1.41c-1.92-18.34-8.17-24.13-14.07-29.6-3.6-3.33-11.17-8.35-13.16-10.53-6.86-7.48-4.41-14.59,2.78-14.6,9.84,0,20,9.63,25.78,22.66C78.77,237.91,78.55,246.53,78.77,255.52Z" style="fill:#e0e0e0"></path><path d="M77.08,256.72l-.89.4c-2-20.49-9.73-36.84-28.22-47-.36-.2-.35-.37-.25-.61s.22-.45.6-.24C67,219.51,75,236,77.08,256.72Z" style="fill:#fff"></path><path d="M75.15,257.84l-3.07,1.77-.71.4-.11.07-3.07,1.77c-1.22-2.49-3.35-5.26-8.12-9.35-7.13-6.12-16.6-9.58-18.42-13.95-2.17-5.24,1.34-9.59,9.24-8.35a24.29,24.29,0,0,1,3.77.92C62.81,233.82,71.85,241.5,75.15,257.84Z" style="fill:#f0f0f0"></path><path d="M72.08,259.61l-.71.4-.11.07C65.88,243.93,54,237,48.1,235.63a.46.46,0,0,1-.34-.56.45.45,0,0,1,.55-.34c4.63,1.1,11.88,4.92,17.67,12.87l0,.05A43.76,43.76,0,0,1,72.08,259.61Z" style="fill:#fff"></path></g><g id="freepik--Tree--inject-140"><g id="freepik--tree--inject-140"><path d="M423.61,173.06a8.41,8.41,0,0,1,4.61.83c2.76,1.34,5,3.46,7.51,5.31s5.25,3.5,8.32,3.6S450.44,181,451,178a4.16,4.16,0,0,1,.39-1.54,2.25,2.25,0,0,1,2.62-.68,14.2,14.2,0,0,1,2.53,1.46c3.11,1.84,7,1.42,10.57.9,3-.43,6.72-1.74,6.71-4.74,0-2-1.72-3.41-3.06-4.83s-2.45-3.7-1.21-5.22a3.49,3.49,0,0,1,1.71-1c3.72-1.21,8.26.4,11.4-1.93,2.33-1.72,2.87-5.23,1.65-7.86a10,10,0,0,0-6.69-5.09c-2.5-.64-5.67-.93-6.6-3.33-.81-2.1.83-4.38,2.67-5.67s4.07-2.2,5.36-4a6.43,6.43,0,0,0,.18-6.65,8.14,8.14,0,0,0-5.6-3.84,12.44,12.44,0,0,1-3.39-.74c-1-.53-1.82-1.84-1.26-2.86.34-.62,1-.93,1.45-1.5.79-1.11.11-2.74-1-3.54a13.78,13.78,0,0,0-3.79-1.45c-2.7-.9-5.31-3.51-4.51-6.23s4.7-3.76,5.85-6.48c1-2.41-.6-5.22-2.76-6.69s-4.79-2.07-7.15-3.19-4.65-3.09-4.85-5.7,1.81-4.92,3.45-7,3-5.1,1.59-7.37-4.42-2.3-6.87-3.08a11.16,11.16,0,0,1-6.77-6.11c-.65-1.51-1-3.15-1.75-4.6-2.43-4.5-8.56-6.47-13.29-5.91-2.49.29-3.32,1.24-4.52,3.06-.69,1.08-1.41,1.63-1.66,3.11-.35,2.18.79,4.94-1.26,6.6-3.11,2.52-7.88-.87-7.71,4.76a24.17,24.17,0,0,0,1.05,7c.85,2.36,2.55,3.39,1.14,6-1.83,3.44-3,3.42-6.69,3.41-2.66,0-4.87-.15-6.82,1.87-3.42,3.53-1.39,6.74,1.65,9.46,3.46,3.1,1.62,4.46,1.17,8.48-.21,1.93.23,2.53-1.5,3.81-3.27,2.43-5.1,1.61-4.18,6.36.84,4.34-.45,2.86-4.21,4.47-3.34,1.44-5.54,5-8.24,7.27-1.74,1.44-4.39,2.55-4.55,5.08-.31,4.84,5.7,3.78,8.57,4.94,4.67,1.89,3.28,8-.37,10.31-3.86,2.43-9.5,3.33-9.81,8.87-.24,4.25,2.18,5.19,5.48,6.61,2.63,1.14,2.29,1.47,2.29,4.61,0,6.34,2.13,8.13,8.38,7.1,1.71-.28,4.32-1,6-.49,2.39.72,1.59,1.3,1.65,3.3.17,5.12,6.13,3.68,8.65,1.49C416,176.37,419.67,173.44,423.61,173.06Z" style="fill:#478BAE"></path><path d="M423.61,173.06a8.41,8.41,0,0,1,4.61.83c2.76,1.34,5,3.46,7.51,5.31s5.25,3.5,8.32,3.6S450.44,181,451,178a4.16,4.16,0,0,1,.39-1.54,2.25,2.25,0,0,1,2.62-.68,14.2,14.2,0,0,1,2.53,1.46c3.11,1.84,7,1.42,10.57.9,3-.43,6.72-1.74,6.71-4.74,0-2-1.72-3.41-3.06-4.83s-2.45-3.7-1.21-5.22a3.49,3.49,0,0,1,1.71-1c3.72-1.21,8.26.4,11.4-1.93,2.33-1.72,2.87-5.23,1.65-7.86a10,10,0,0,0-6.69-5.09c-2.5-.64-5.67-.93-6.6-3.33-.81-2.1.83-4.38,2.67-5.67s4.07-2.2,5.36-4a6.43,6.43,0,0,0,.18-6.65,8.14,8.14,0,0,0-5.6-3.84,12.44,12.44,0,0,1-3.39-.74c-1-.53-1.82-1.84-1.26-2.86.34-.62,1-.93,1.45-1.5.79-1.11.11-2.74-1-3.54a13.78,13.78,0,0,0-3.79-1.45c-2.7-.9-5.31-3.51-4.51-6.23s4.7-3.76,5.85-6.48c1-2.41-.6-5.22-2.76-6.69s-4.79-2.07-7.15-3.19-4.65-3.09-4.85-5.7,1.81-4.92,3.45-7,3-5.1,1.59-7.37-4.42-2.3-6.87-3.08a11.16,11.16,0,0,1-6.77-6.11c-.65-1.51-1-3.15-1.75-4.6-2.43-4.5-8.56-6.47-13.29-5.91-2.49.29-3.32,1.24-4.52,3.06-.69,1.08-1.41,1.63-1.66,3.11-.35,2.18.79,4.94-1.26,6.6-3.11,2.52-7.88-.87-7.71,4.76a24.17,24.17,0,0,0,1.05,7c.85,2.36,2.55,3.39,1.14,6-1.83,3.44-3,3.42-6.69,3.41-2.66,0-4.87-.15-6.82,1.87-3.42,3.53-1.39,6.74,1.65,9.46,3.46,3.1,1.62,4.46,1.17,8.48-.21,1.93.23,2.53-1.5,3.81-3.27,2.43-5.1,1.61-4.18,6.36.84,4.34-.45,2.86-4.21,4.47-3.34,1.44-5.54,5-8.24,7.27-1.74,1.44-4.39,2.55-4.55,5.08-.31,4.84,5.7,3.78,8.57,4.94,4.67,1.89,3.28,8-.37,10.31-3.86,2.43-9.5,3.33-9.81,8.87-.24,4.25,2.18,5.19,5.48,6.61,2.63,1.14,2.29,1.47,2.29,4.61,0,6.34,2.13,8.13,8.38,7.1,1.71-.28,4.32-1,6-.49,2.39.72,1.59,1.3,1.65,3.3.17,5.12,6.13,3.68,8.65,1.49C416,176.37,419.67,173.44,423.61,173.06Z" style="fill:#fff;opacity:0.1"></path><path d="M471.26,162.27c2.85-.93,6.19-.2,9-.87a33.27,33.27,0,0,0-5-.79,14.21,14.21,0,0,0-7.15,1.55,6.65,6.65,0,0,0-2.53,1.7,3.18,3.18,0,0,0,.09,3.17c.48,1.11,1.22,2.84.08,3.78s-3.49.68-4.9.18a44.23,44.23,0,0,1-5.13-2.39,23.56,23.56,0,0,0-5.07-2.09c-1.26-.31-3.48-.48-4.28.9a5.62,5.62,0,0,0-.85,2.75,6,6,0,0,1,0,2.19,4.33,4.33,0,0,1-3,3.22c-2,.43-3.93-.88-5.15-2.48s-2-3.52-3.19-5.12a10.83,10.83,0,0,0-14.39-2.09c-1.83,1.32-4.12,3.33-5.94,2s-.77-5.27-2.93-6.35c-1.44-.72-3.46.42-4.67-.64a3.3,3.3,0,0,1-.82-1.77c-.86-3.62-1.6-7.8.67-10.74,2-2.61,6.32-4.22,5.86-7.5-.4-2.8-4-3.65-6.77-4s-6.36-1.66-6.22-4.48,3.89-4.11,4.45-6.83c.23-1.16-.16-2.45.37-3.52.8-1.59,3.09-1.66,4.42-2.84,2.41-2.12.54-6.1,1.22-9.24.49-2.22,2.28-4,2.88-6.15,1.19-4.37-2.79-8.54-7-10.32a25.87,25.87,0,0,1-4.74-2.2l-.15-.11c.1,2,1.57,3.81,3.42,5.47,3.46,3.1,1.62,4.46,1.17,8.48-.21,1.93.23,2.53-1.5,3.81-3.27,2.43-5.1,1.61-4.18,6.36.84,4.34-.45,2.86-4.21,4.47-3.34,1.44-5.54,5-8.24,7.27-1.74,1.44-4.39,2.55-4.55,5.08-.31,4.84,5.7,3.78,8.57,4.94,4.67,1.89,3.28,8-.37,10.31-3.86,2.43-9.5,3.33-9.81,8.87-.24,4.25,2.18,5.19,5.48,6.61,2.63,1.14,2.29,1.47,2.29,4.61,0,6.34,2.13,8.13,8.38,7.1,1.71-.28,4.32-1,6-.49,2.39.72,1.59,1.3,1.65,3.3.17,5.12,6.13,3.68,8.65,1.49,2.91-2.53,6.56-5.46,10.5-5.84a8.41,8.41,0,0,1,4.61.83c2.76,1.34,5,3.46,7.51,5.31s5.25,3.5,8.32,3.6S450.44,181,451,178a4.16,4.16,0,0,1,.39-1.54,2.25,2.25,0,0,1,2.62-.68,14.2,14.2,0,0,1,2.53,1.46c3.11,1.84,7,1.42,10.57.9,3-.43,6.72-1.74,6.71-4.74,0-2-1.72-3.41-3.06-4.83s-2.45-3.7-1.21-5.22A3.53,3.53,0,0,1,471.26,162.27Z" style="opacity:0.15"></path><path d="M411.29,114l19.25,38.15V134.61l2-45.62,2.84,45.62v11.81l21.15-37-21.15,45.39V270.41a1.18,1.18,0,0,1-.7,1,3.71,3.71,0,0,1-3.4,0,1.18,1.18,0,0,1-.7-1V161.9Z" style="fill:#455a64"></path></g></g></g><g id="freepik--Floor--inject-140"><g id="freepik--floor--inject-140"><ellipse id="freepik--Grass--inject-140" cx="250" cy="345.53" rx="234.21" ry="135.22" style="fill:#478BAE"></ellipse><ellipse id="freepik--grass--inject-140" cx="250" cy="345.53" rx="234.21" ry="135.22" style="fill:#fff;opacity:0.15"></ellipse><path d="M344.2,469.37,35.54,291.11c-37.7,49.54-21.42,109.47,48.85,150S258.4,491.11,344.2,469.37Z" style="fill:#fff;opacity:0.7000000000000001"></path></g></g><g id="freepik--Shadows--inject-140"><g id="freepik--Shadow--inject-140" style="opacity:0.15"><path id="freepik--shadow--inject-140" d="M121.42,320.06,326.47,438.44a8.33,8.33,0,0,0,7.56,0l63.31-36.55c2.08-1.2,2.08-3.16,0-4.36l-205-118.38a8.31,8.31,0,0,0-7.55,0L121.42,315.7C119.34,316.9,119.34,318.86,121.42,320.06Z"></path></g></g><g id="freepik--Sign--inject-140"><g id="freepik--bus-signal--inject-140"><polygon points="81.41 28.5 81.41 294.68 78.56 293.03 78.56 26.82 81.41 28.5" style="fill:#37474f"></polygon><polygon points="85.97 25.83 85.97 292.04 81.41 294.68 81.41 28.5 85.97 25.83" style="fill:#455a64"></polygon><polygon points="85.97 25.83 81.41 28.5 78.56 26.82 83.12 24.19 85.97 25.83" style="fill:#263238"></polygon><path d="M60.13,49.05,105.26,23a2.11,2.11,0,0,1,2.16-.2c.41.25,2,1.15,2.41,1.39a2.13,2.13,0,0,1,.88,2V91.38a6.66,6.66,0,0,1-3,5.25L62.56,122.69a2.15,2.15,0,0,1-2.14.21c-.43-.24-2-1.16-2.47-1.43a2.15,2.15,0,0,1-.85-1.93V54.3A6.69,6.69,0,0,1,60.13,49.05Z" style="fill:#478BAE"></path><path d="M60.13,49.05,105.26,23a2.11,2.11,0,0,1,2.16-.2c.41.25,2,1.15,2.41,1.39a2.13,2.13,0,0,1,.88,2V91.38a6.66,6.66,0,0,1-3,5.25L62.56,122.69a2.15,2.15,0,0,1-2.14.21c-.43-.24-2-1.16-2.47-1.43a2.15,2.15,0,0,1-.85-1.93V54.3A6.69,6.69,0,0,1,60.13,49.05Z" style="fill:#fff;opacity:0.7000000000000001"></path><path d="M60.42,122.9c-.43-.24-2-1.16-2.47-1.43a2.15,2.15,0,0,1-.85-1.93V54.3a6,6,0,0,1,.6-2.43l4.86,2.81v68h0A2.15,2.15,0,0,1,60.42,122.9Z" style="fill:#478BAE"></path><path d="M60.42,122.9c-.43-.24-2-1.16-2.47-1.43a2.15,2.15,0,0,1-.85-1.93V54.3a6,6,0,0,1,.6-2.43l4.86,2.81v68h0A2.15,2.15,0,0,1,60.42,122.9Z" style="fill:#fff;opacity:0.30000000000000004"></path><path d="M62.55,50.44l45.13-26c1.68-1,3-.18,3,1.75V91.38a6.66,6.66,0,0,1-3,5.25L62.56,122.69c-1.68,1-3,.18-3-1.75V55.7A6.72,6.72,0,0,1,62.55,50.44Z" style="fill:#478BAE"></path><path d="M62.55,50.44l45.13-26c1.68-1,3-.18,3,1.75V91.38a6.66,6.66,0,0,1-3,5.25L62.56,122.69c-1.68,1-3,.18-3-1.75V55.7A6.72,6.72,0,0,1,62.55,50.44Z" style="fill:#fff;opacity:0.5"></path><path d="M104.87,54l-2.21,1.28a.69.69,0,0,0-.31.54V61h0v2.28l-.95.54V47.36c0-2.9-2-4.08-4.56-2.63L72.37,58.86a10.07,10.07,0,0,0-4.55,7.89V83.17l-1,.57V81.46h0V76.33c0-.2-.14-.28-.31-.18l-2.21,1.28A.66.66,0,0,0,64,78v4.7c0,.73.51,1,1.14.66l.6-.34v1.39c0,.69.48,1,1.07.62l1-.56V97.5l-.13.07a2.74,2.74,0,0,0-1.23,2.14v.41c0,1.88,1.32,2.65,3,1.7l.61-.35v3c0,.51.36.71.8.46l3.83-2.21a1.79,1.79,0,0,0,.8-1.39v-3L93.76,87.76v3c0,.51.36.72.8.46L98.39,89a1.76,1.76,0,0,0,.8-1.38v-3l.61-.35a6.55,6.55,0,0,0,3-5.12v-.41c0-.79-.55-1.11-1.23-.71l-.13.07V65l1-.56a2.38,2.38,0,0,0,1.08-1.86v-1.4l.59-.34a2.52,2.52,0,0,0,1.14-2V54.2C105.18,54,105,53.93,104.87,54Zm-4.78,16.65A4.19,4.19,0,0,1,98.19,74c-1,.61-1.9.12-1.9-1.1a4.19,4.19,0,0,1,1.9-3.29C99.24,69,100.09,69.45,100.09,70.67ZM97.48,47c.66-.38,1.19-.08,1.19.68a2.62,2.62,0,0,1-1.19,2.06c-.65.37-1.18.07-1.18-.69A2.6,2.6,0,0,1,97.48,47Zm1.19,8.33v8a1.23,1.23,0,0,1-.56,1L85.18,71.77V58.91l9.87-5.7C97.05,52.06,98.67,53,98.67,55.3ZM94.82,72.74v1.48L74.4,86V84.53Zm0,3.27v1.48L74.4,89.28V87.8Zm0,3.26v1.48L74.4,92.54V91.06ZM75.45,59.9a.61.61,0,0,1,.27-.48L93.49,49.17c.15-.09.27,0,.27.15v2.32a.61.61,0,0,1-.27.48L75.72,62.37c-.15.09-.27,0-.27-.16Zm-3.72,1.93c.66-.38,1.19-.07,1.19.69a2.62,2.62,0,0,1-1.19,2c-.65.38-1.18.07-1.18-.68A2.64,2.64,0,0,1,71.73,61.83Zm-1.18,9.71a8,8,0,0,1,3.61-6.26L84,59.58V72.43L71.1,79.9c-.31.17-.55,0-.55-.32ZM71,85.25c1-.61,1.9-.11,1.9,1.1a4.22,4.22,0,0,1-1.9,3.3c-1.06.6-1.91.11-1.91-1.1A4.19,4.19,0,0,1,71,85.25Z" style="fill:#fafafa"></path></g></g><g id="freepik--Bench--inject-140"><g id="freepik--bench--inject-140"><path d="M232.81,316.42a4.52,4.52,0,0,0,2.29-.61l49.47-28.57a17.56,17.56,0,0,0,8.77-15.18V214.94a4.6,4.6,0,0,0-9.19,0v57.12a8.36,8.36,0,0,1-4.17,7.23l-49.47,28.57a4.59,4.59,0,0,0,2.3,8.56Z" style="fill:#37474f"></path><path d="M333.8,373.44a4.59,4.59,0,0,0,2.29-.62l49.47-28.56a17.59,17.59,0,0,0,8.76-15.19V272a4.59,4.59,0,0,0-9.18,0v57.12a8.39,8.39,0,0,1-4.17,7.24L331.5,364.87a4.59,4.59,0,0,0,2.3,8.57Z" style="fill:#37474f"></path><path d="M135.29,259a4.56,4.56,0,0,0,2.29-.62l49.47-28.56a17.59,17.59,0,0,0,8.76-15.18V157.49a4.59,4.59,0,1,0-9.18,0v57.13a8.37,8.37,0,0,1-4.18,7.23L133,250.41a4.59,4.59,0,0,0,2.3,8.57Z" style="fill:#37474f"></path><path d="M325.23,367.75v63.4a2.6,2.6,0,0,0,1.53,2.13,8.14,8.14,0,0,0,7.38,0,2.6,2.6,0,0,0,1.52-2.13v-63.4Z" style="fill:#37474f"></path><path d="M368.87,342.89V406.3a2.6,2.6,0,0,0,1.52,2.13,8.2,8.2,0,0,0,7.38,0,2.6,2.6,0,0,0,1.53-2.13V342.89Z" style="fill:#37474f"></path><path d="M126.9,253.23v63.41a2.6,2.6,0,0,0,1.52,2.13,8.2,8.2,0,0,0,7.38,0,2.6,2.6,0,0,0,1.53-2.13V253.23Z" style="fill:#37474f"></path><path d="M170.53,228.38v63.4a2.6,2.6,0,0,0,1.53,2.13,8.11,8.11,0,0,0,7.37,0,2.6,2.6,0,0,0,1.53-2.13v-63.4Z" style="fill:#37474f"></path><path d="M404.55,284.91l.92-.53a5.86,5.86,0,0,0,2.65-4.59v-8.23a5.86,5.86,0,0,0-2.65-4.59L187.42,141.08a5.89,5.89,0,0,0-5.3,0l-.91.53a5.83,5.83,0,0,0-2.65,4.59v8.23a5.83,5.83,0,0,0,2.65,4.59l218,125.89A5.83,5.83,0,0,0,404.55,284.91Z" style="fill:#478BAE"></path><path d="M404.55,284.91l.92-.53a5.86,5.86,0,0,0,2.65-4.59v-8.23a5.86,5.86,0,0,0-2.65-4.59L187.42,141.08a5.89,5.89,0,0,0-5.3,0l-.91.53a5.83,5.83,0,0,0-2.65,4.59v8.23a5.83,5.83,0,0,0,2.65,4.59l218,125.89A5.83,5.83,0,0,0,404.55,284.91Z" style="fill:#fff;opacity:0.6000000000000001"></path><path d="M395.68,275.68,407.34,269a5.39,5.39,0,0,1,.78,2.61v8.23a5.86,5.86,0,0,1-2.65,4.59l-.92.53a5.83,5.83,0,0,1-5.3,0l-3.57-2.06Z" style="fill:#478BAE"></path><path d="M395.68,275.68,407.34,269a5.39,5.39,0,0,1,.78,2.61v8.23a5.86,5.86,0,0,1-2.65,4.59l-.92.53a5.83,5.83,0,0,1-5.3,0l-3.57-2.06Z" style="fill:#fff;opacity:0.30000000000000004"></path><path d="M399.25,270.56l-218-125.89c-1.47-.85-2.65-.16-2.65,1.53v8.23a5.83,5.83,0,0,0,2.65,4.59l218,125.89c1.46.85,2.65.16,2.65-1.53v-8.23A5.86,5.86,0,0,0,399.25,270.56Z" style="fill:#478BAE"></path><path d="M399.25,270.56l-218-125.89c-1.47-.85-2.65-.16-2.65,1.53v8.23a5.83,5.83,0,0,0,2.65,4.59l218,125.89c1.46.85,2.65.16,2.65-1.53v-8.23A5.86,5.86,0,0,0,399.25,270.56Z" style="fill:#fff;opacity:0.5"></path><path d="M404.55,310.09l.92-.53a5.87,5.87,0,0,0,2.65-4.59v-8.24a5.87,5.87,0,0,0-2.65-4.59L187.42,166.26a5.83,5.83,0,0,0-5.3,0l-.91.52a5.85,5.85,0,0,0-2.65,4.59v8.24a5.85,5.85,0,0,0,2.65,4.59l218,125.89A5.89,5.89,0,0,0,404.55,310.09Z" style="fill:#478BAE"></path><path d="M404.55,310.09l.92-.53a5.87,5.87,0,0,0,2.65-4.59v-8.24a5.87,5.87,0,0,0-2.65-4.59L187.42,166.26a5.83,5.83,0,0,0-5.3,0l-.91.52a5.85,5.85,0,0,0-2.65,4.59v8.24a5.85,5.85,0,0,0,2.65,4.59l218,125.89A5.89,5.89,0,0,0,404.55,310.09Z" style="fill:#fff;opacity:0.6000000000000001"></path><path d="M395.68,300.85l11.66-6.73a5.43,5.43,0,0,1,.78,2.61V305a5.87,5.87,0,0,1-2.65,4.59l-.92.53a5.89,5.89,0,0,1-5.3,0L395.68,308Z" style="fill:#478BAE"></path><path d="M395.68,300.85l11.66-6.73a5.43,5.43,0,0,1,.78,2.61V305a5.87,5.87,0,0,1-2.65,4.59l-.92.53a5.89,5.89,0,0,1-5.3,0L395.68,308Z" style="fill:#fff;opacity:0.30000000000000004"></path><path d="M399.25,295.73l-218-125.89c-1.47-.84-2.65-.16-2.65,1.53v8.24a5.85,5.85,0,0,0,2.65,4.59l218,125.89c1.46.84,2.65.16,2.65-1.53v-8.24A5.87,5.87,0,0,0,399.25,295.73Z" style="fill:#478BAE"></path><path d="M399.25,295.73l-218-125.89c-1.47-.84-2.65-.16-2.65,1.53v8.24a5.85,5.85,0,0,0,2.65,4.59l218,125.89c1.46.84,2.65.16,2.65-1.53v-8.24A5.87,5.87,0,0,0,399.25,295.73Z" style="fill:#fff;opacity:0.5"></path><path d="M404.55,335.26l.92-.53a5.86,5.86,0,0,0,2.65-4.59v-8.23a5.86,5.86,0,0,0-2.65-4.59L187.42,191.43a5.89,5.89,0,0,0-5.3,0l-.91.53a5.83,5.83,0,0,0-2.65,4.59v8.23a5.83,5.83,0,0,0,2.65,4.59l218,125.89A5.83,5.83,0,0,0,404.55,335.26Z" style="fill:#478BAE"></path><path d="M404.55,335.26l.92-.53a5.86,5.86,0,0,0,2.65-4.59v-8.23a5.86,5.86,0,0,0-2.65-4.59L187.42,191.43a5.89,5.89,0,0,0-5.3,0l-.91.53a5.83,5.83,0,0,0-2.65,4.59v8.23a5.83,5.83,0,0,0,2.65,4.59l218,125.89A5.83,5.83,0,0,0,404.55,335.26Z" style="fill:#fff;opacity:0.6000000000000001"></path><path d="M395.68,326l11.66-6.73a5.39,5.39,0,0,1,.78,2.61v8.23a5.86,5.86,0,0,1-2.65,4.59l-.92.53a5.83,5.83,0,0,1-5.3,0l-3.57-2.06Z" style="fill:#478BAE"></path><path d="M395.68,326l11.66-6.73a5.39,5.39,0,0,1,.78,2.61v8.23a5.86,5.86,0,0,1-2.65,4.59l-.92.53a5.83,5.83,0,0,1-5.3,0l-3.57-2.06Z" style="fill:#fff;opacity:0.30000000000000004"></path><path d="M399.25,320.91,181.21,195c-1.47-.85-2.65-.16-2.65,1.53v8.23a5.83,5.83,0,0,0,2.65,4.59l218,125.89c1.46.85,2.65.16,2.65-1.53V325.5A5.86,5.86,0,0,0,399.25,320.91Z" style="fill:#478BAE"></path><path d="M399.25,320.91,181.21,195c-1.47-.85-2.65-.16-2.65,1.53v8.23a5.83,5.83,0,0,0,2.65,4.59l218,125.89c1.46.85,2.65.16,2.65-1.53V325.5A5.86,5.86,0,0,0,399.25,320.91Z" style="fill:#fff;opacity:0.5"></path><path d="M395.68,350.5v1.06a5.83,5.83,0,0,1-2.65,4.59l-7.13,4.12a5.89,5.89,0,0,1-5.3,0l-218-125.89a5.83,5.83,0,0,1-2.65-4.59v-1.06a5.85,5.85,0,0,1,2.65-4.59l7.13-4.11a5.83,5.83,0,0,1,5.3,0L393,345.91A5.85,5.85,0,0,1,395.68,350.5Z" style="fill:#478BAE"></path><path d="M395.68,350.5v1.06a5.83,5.83,0,0,1-2.65,4.59l-7.13,4.12a5.89,5.89,0,0,1-5.3,0l-218-125.89a5.83,5.83,0,0,1-2.65-4.59v-1.06a5.85,5.85,0,0,1,2.65-4.59l7.13-4.11a5.83,5.83,0,0,1,5.3,0L393,345.91A5.85,5.85,0,0,1,395.68,350.5Z" style="fill:#fff;opacity:0.5"></path><path d="M383.25,347.44V360.9a5.44,5.44,0,0,0,2.65-.63l7.13-4.12a5.83,5.83,0,0,0,2.65-4.59V350.5a5.85,5.85,0,0,0-2.65-4.59l-3.56-2.06Z" style="fill:#478BAE"></path><path d="M383.25,347.44V360.9a5.44,5.44,0,0,0,2.65-.63l7.13-4.12a5.83,5.83,0,0,0,2.65-4.59V350.5a5.85,5.85,0,0,0-2.65-4.59l-3.56-2.06Z" style="fill:#fff;opacity:0.30000000000000004"></path><path d="M380.6,353.09l-218-125.89c-1.47-.84-1.47-2.21,0-3.06l7.13-4.11a5.83,5.83,0,0,1,5.3,0L393,345.91c1.47.85,1.47,2.22,0,3.06l-7.13,4.12A5.83,5.83,0,0,1,380.6,353.09Z" style="fill:#478BAE"></path><path d="M380.6,353.09l-218-125.89c-1.47-.84-1.47-2.21,0-3.06l7.13-4.11a5.83,5.83,0,0,1,5.3,0L393,345.91c1.47.85,1.47,2.22,0,3.06l-7.13,4.12A5.83,5.83,0,0,1,380.6,353.09Z" style="fill:#fff;opacity:0.6000000000000001"></path><path d="M373.93,363.06v1.06a5.86,5.86,0,0,1-2.65,4.59l-7.13,4.12a5.89,5.89,0,0,1-5.3,0l-218-125.89a5.86,5.86,0,0,1-2.65-4.59v-1.06a5.87,5.87,0,0,1,2.65-4.59l7.13-4.11a5.83,5.83,0,0,1,5.3,0L371.28,358.47A5.87,5.87,0,0,1,373.93,363.06Z" style="fill:#478BAE"></path><path d="M373.93,363.06v1.06a5.86,5.86,0,0,1-2.65,4.59l-7.13,4.12a5.89,5.89,0,0,1-5.3,0l-218-125.89a5.86,5.86,0,0,1-2.65-4.59v-1.06a5.87,5.87,0,0,1,2.65-4.59l7.13-4.11a5.83,5.83,0,0,1,5.3,0L371.28,358.47A5.87,5.87,0,0,1,373.93,363.06Z" style="fill:#fff;opacity:0.5"></path><path d="M361.5,360v13.46a5.44,5.44,0,0,0,2.65-.63l7.13-4.12a5.86,5.86,0,0,0,2.65-4.59v-1.06a5.87,5.87,0,0,0-2.65-4.59l-3.57-2.06Z" style="fill:#478BAE"></path><path d="M361.5,360v13.46a5.44,5.44,0,0,0,2.65-.63l7.13-4.12a5.86,5.86,0,0,0,2.65-4.59v-1.06a5.87,5.87,0,0,0-2.65-4.59l-3.57-2.06Z" style="fill:#fff;opacity:0.30000000000000004"></path><path d="M358.85,365.65l-218-125.89c-1.46-.84-1.46-2.21,0-3.06l7.13-4.11a5.83,5.83,0,0,1,5.3,0L371.28,358.47c1.46.85,1.46,2.22,0,3.06l-7.13,4.12A5.83,5.83,0,0,1,358.85,365.65Z" style="fill:#478BAE"></path><path d="M358.85,365.65l-218-125.89c-1.46-.84-1.46-2.21,0-3.06l7.13-4.11a5.83,5.83,0,0,1,5.3,0L371.28,358.47c1.46.85,1.46,2.22,0,3.06l-7.13,4.12A5.83,5.83,0,0,1,358.85,365.65Z" style="fill:#fff;opacity:0.6000000000000001"></path><path d="M352.17,375.62v1.06a5.83,5.83,0,0,1-2.65,4.59l-7.13,4.12a5.89,5.89,0,0,1-5.3,0l-218-125.89a5.83,5.83,0,0,1-2.65-4.59v-1.06a5.85,5.85,0,0,1,2.65-4.59l7.13-4.11a5.83,5.83,0,0,1,5.3,0L349.52,371A5.85,5.85,0,0,1,352.17,375.62Z" style="fill:#478BAE"></path><path d="M352.17,375.62v1.06a5.83,5.83,0,0,1-2.65,4.59l-7.13,4.12a5.89,5.89,0,0,1-5.3,0l-218-125.89a5.83,5.83,0,0,1-2.65-4.59v-1.06a5.85,5.85,0,0,1,2.65-4.59l7.13-4.11a5.83,5.83,0,0,1,5.3,0L349.52,371A5.85,5.85,0,0,1,352.17,375.62Z" style="fill:#fff;opacity:0.5"></path><path d="M339.74,372.56V386a5.44,5.44,0,0,0,2.65-.63l7.13-4.12a5.83,5.83,0,0,0,2.65-4.59v-1.06a5.85,5.85,0,0,0-2.65-4.59L346,369Z" style="fill:#478BAE"></path><path d="M339.74,372.56V386a5.44,5.44,0,0,0,2.65-.63l7.13-4.12a5.83,5.83,0,0,0,2.65-4.59v-1.06a5.85,5.85,0,0,0-2.65-4.59L346,369Z" style="fill:#fff;opacity:0.30000000000000004"></path><path d="M337.09,378.21l-218-125.89c-1.47-.84-1.47-2.21,0-3.06l7.13-4.11a5.83,5.83,0,0,1,5.3,0L349.52,371c1.47.85,1.47,2.22,0,3.06l-7.13,4.12A5.83,5.83,0,0,1,337.09,378.21Z" style="fill:#478BAE"></path><path d="M337.09,378.21l-218-125.89c-1.47-.84-1.47-2.21,0-3.06l7.13-4.11a5.83,5.83,0,0,1,5.3,0L349.52,371c1.47.85,1.47,2.22,0,3.06l-7.13,4.12A5.83,5.83,0,0,1,337.09,378.21Z" style="fill:#478BAE"></path><path d="M337.09,378.21l-218-125.89c-1.47-.84-1.47-2.21,0-3.06l7.13-4.11a5.83,5.83,0,0,1,5.3,0L349.52,371c1.47.85,1.47,2.22,0,3.06l-7.13,4.12A5.83,5.83,0,0,1,337.09,378.21Z" style="fill:#fff;opacity:0.6000000000000001"></path><path d="M389.73,270a3.75,3.75,0,0,1,1.71,2.95c0,1.09-.76,1.53-1.71,1a3.77,3.77,0,0,1-1.7-3C388,269.88,388.79,269.44,389.73,270Z" style="fill:#37474f"></path><path d="M389.73,295.1a3.77,3.77,0,0,1,1.71,3c0,1.08-.76,1.53-1.71,1a3.77,3.77,0,0,1-1.7-3C388,295,388.79,294.56,389.73,295.1Z" style="fill:#37474f"></path><path d="M389.73,320.22a3.77,3.77,0,0,1,1.71,3c0,1.09-.76,1.53-1.71,1a3.75,3.75,0,0,1-1.7-3C388,320.12,388.79,319.68,389.73,320.22Z" style="fill:#37474f"></path><path d="M191.22,155.58a3.8,3.8,0,0,1,1.71,3c0,1.09-.77,1.53-1.71,1a3.75,3.75,0,0,1-1.7-3C189.52,155.48,190.28,155,191.22,155.58Z" style="fill:#37474f"></path><path d="M191.22,180.71a3.76,3.76,0,0,1,1.71,2.95c0,1.09-.77,1.53-1.71,1a3.79,3.79,0,0,1-1.7-3C189.52,180.6,190.28,180.16,191.22,180.71Z" style="fill:#37474f"></path><path d="M191.22,205.83a3.76,3.76,0,0,1,1.71,2.95c0,1.09-.77,1.53-1.71,1a3.79,3.79,0,0,1-1.7-3C189.52,205.72,190.28,205.28,191.22,205.83Z" style="fill:#37474f"></path><path d="M375.58,341a.91.91,0,0,1,0,1.73,3.3,3.3,0,0,1-3,0,.91.91,0,0,1,0-1.73A3.3,3.3,0,0,1,375.58,341Z" style="fill:#37474f"></path><path d="M353.76,353.61a.91.91,0,0,1,0,1.73,3.31,3.31,0,0,1-3,0,.91.91,0,0,1,0-1.73A3.28,3.28,0,0,1,353.76,353.61Z" style="fill:#37474f"></path><path d="M332,366.27a.92.92,0,0,1,0,1.74,3.37,3.37,0,0,1-3,0,.92.92,0,0,1,0-1.74A3.37,3.37,0,0,1,332,366.27Z" style="fill:#37474f"></path><path d="M177.24,226.5a.91.91,0,0,1,0,1.73,3.28,3.28,0,0,1-3,0,.91.91,0,0,1,0-1.73A3.37,3.37,0,0,1,177.24,226.5Z" style="fill:#37474f"></path><path d="M155.43,239.17a.92.92,0,0,1,0,1.73,3.31,3.31,0,0,1-3,0,.91.91,0,0,1,0-1.73A3.3,3.3,0,0,1,155.43,239.17Z" style="fill:#37474f"></path><path d="M133.61,251.83a.91.91,0,0,1,0,1.73,3.3,3.3,0,0,1-3,0,.91.91,0,0,1,0-1.73A3.3,3.3,0,0,1,133.61,251.83Z" style="fill:#37474f"></path><path d="M288.75,213a3.77,3.77,0,0,1,1.7,2.95c0,1.09-.76,1.53-1.7,1a3.77,3.77,0,0,1-1.71-3C287,212.93,287.8,212.48,288.75,213Z" style="fill:#37474f"></path><path d="M288.75,238.15a3.77,3.77,0,0,1,1.7,3c0,1.08-.76,1.52-1.7,1a3.75,3.75,0,0,1-1.71-3C287,238.05,287.8,237.61,288.75,238.15Z" style="fill:#37474f"></path><path d="M288.75,263.27a3.79,3.79,0,0,1,1.7,3c0,1.09-.76,1.53-1.7,1a3.74,3.74,0,0,1-1.71-2.95C287,263.17,287.8,262.73,288.75,263.27Z" style="fill:#37474f"></path><path d="M274.77,284a.92.92,0,0,1,0,1.73,3.31,3.31,0,0,1-3,0,.91.91,0,0,1,0-1.73A3.3,3.3,0,0,1,274.77,284Z" style="fill:#37474f"></path><path d="M253,296.61a.91.91,0,0,1,0,1.73,3.3,3.3,0,0,1-3,0,.91.91,0,0,1,0-1.73A3.3,3.3,0,0,1,253,296.61Z" style="fill:#37474f"></path><path d="M231.13,309.27a.91.91,0,0,1,0,1.73,3.28,3.28,0,0,1-3,0,.91.91,0,0,1,0-1.73A3.37,3.37,0,0,1,231.13,309.27Z" style="fill:#37474f"></path></g></g><g id="freepik--Character--inject-140"><path id="freepik--shadow--inject-140" d="M200,281.13l68.23,39.39a164.39,164.39,0,0,0,16.22-8.84c1-.6,1.85-1.18,2.71-1.76l-75.1-43.36Zm-14.08,17,63.39,36.6v-6.61a141.43,141.43,0,0,0,15.46-6L198,283.56Zm28.15-34L290,308c7.8-5.74,10.87-10.49,12.12-14.53l-76-43.85Zm56.29-68-8,9.72,54,31.2c.53-4.48.8-9.22.88-13.85l7.23-3-45.32-26.17ZM248.23,222.9l61,35.2c3.42-3.2,5.52-9.83,6.73-17.65L260.3,208.33Zm-14.1,17,69.61,40.19c.85-6.34,2.41-14.76,4-19.22l-61.56-35.54Z" style="opacity:0.15"></path><path d="M186.88,405.67c-3.73,6.43-7,13.12-11.46,19.09-6.51,8.84-15.73,14.43-24.74,20.35-3.66,2.4-8,6.24-5.77,11.06.92,2,2.23,3.41,5.32,4.94,6.06,3,10.7,2.63,14.22,2.64,6.57,0,15.35-2,20.11-6.8,5.05-5.09,8.89-11.75,15.83-14.57,2.38-1,5.1-1.45,6.93-3.26,2.48-2.45,2.51-6.45,4.39-9.38,3.26-5.08,11.12-5.72,14.07-11,1.35-2.42,1.37-5.33,2-8,1.95-8.64,9.67-14.46,17.16-19.37l-32.88-19A173.19,173.19,0,0,0,186.88,405.67Z" style="opacity:0.15"></path><g id="freepik--character--inject-140"><g id="freepik--Bottom--inject-140"><path d="M192.2,358.42s9.09,17.75,10.1,25c1,7.53,3.1,9.87,2.52,18.21-.12,1.81-.75,5.49-.86,7a2.15,2.15,0,0,0,2.18,2.51c3.34.4,8.25-6.23,10.27-13.16s4.38-22.38,4.45-24.21a10.37,10.37,0,0,0-1.5-5.21,16.22,16.22,0,0,0-1.74-2.61c-1.37-3.19-2.43-9.41-3.72-13.66Z" style="fill:#ffa8a7"></path><path d="M227.87,380a7.85,7.85,0,0,1,1.1,2.4c.2,1.5-2.77,6.76-3.95,8.69s-2.29,4.3-1.72,8.81c.61,4.81-1.12,9.64-3.89,13.89a33.36,33.36,0,0,1-15.56,12.22c-7.76,3.14-10.91-.61-10.91-.61s-2.8-3.63-1.45-5.34S227.87,380,227.87,380Z" style="fill:#37474f"></path><path d="M217.62,365.88c.24,0,.66-.13,1.35.57.26.26,2,3.72,3.39,5.49s4.84,5.08,5.51,8.1c-1.33,6.06-6.52,10.65-6.87,16.29s.12,12.13-7.86,19.69-16.72,9-20,7.5-3.32-4.95.53-11.79c4.09-7.27,6-22.39,6-22.4a48.65,48.65,0,0,0,.28-6.39c0-2.05-.8-4.17-1.13-6.2a4.67,4.67,0,0,1,.15-2.87,4.83,4.83,0,0,1,2.22-1.83,20.74,20.74,0,0,1,4.27-1.87,7,7,0,0,1,4.58.15c1,.45,1.92,1.23,3,1.57a4.09,4.09,0,0,0,4.15-1.12,3.49,3.49,0,0,0,.8-4A7.81,7.81,0,0,0,217.62,365.88Z" style="fill:#478BAE"></path><path d="M217.62,365.88c.24,0,.66-.13,1.35.57.26.26,2,3.72,3.39,5.49s4.84,5.08,5.51,8.1c-1.33,6.06-6.52,10.65-6.87,16.29s.12,12.13-7.86,19.69-16.72,9-20,7.5-3.32-4.95.53-11.79c4.09-7.27,6-22.39,6-22.4a48.65,48.65,0,0,0,.28-6.39c0-2.05-.8-4.17-1.13-6.2a4.67,4.67,0,0,1,.15-2.87,4.83,4.83,0,0,1,2.22-1.83,20.74,20.74,0,0,1,4.27-1.87,7,7,0,0,1,4.58.15c1,.45,1.92,1.23,3,1.57a4.09,4.09,0,0,0,4.15-1.12,3.49,3.49,0,0,0,.8-4A7.81,7.81,0,0,0,217.62,365.88Z" style="opacity:0.4"></path><path d="M217.68,410.12s-3.91-6.46-13-5.64-11.84,5.72-13,8.56c-1.37,3.38-2.58,9.41,1.32,10.77,4.21,1.47,8.86.5,15.93-3.84S217.68,410.12,217.68,410.12Z" style="fill:#fafafa"></path><path d="M213.65,382.86a.93.93,0,0,1-.83.07c-1.47-.6-9-1.51-13,2.88-.6-.4-.55-1.23.06-2.45,4.79-3.66,12-2.83,13.73-2.11a.87.87,0,0,1,.45,1.18A.91.91,0,0,1,213.65,382.86Z" style="fill:#fafafa"></path><path d="M199.32,391.2a2.86,2.86,0,0,1,.31-2.55c4.77-3.14,11.42-2.35,13.12-1.66a.85.85,0,0,1,.46,1.17,1,1,0,0,1-.39.44.93.93,0,0,1-.83.06C210.56,388.09,203.38,387.23,199.32,391.2Z" style="fill:#fafafa"></path><path d="M196.68,403.81a5.19,5.19,0,0,1,.87-3.4c4.79-3.48,11.79-2.66,13.53-2a.85.85,0,0,1,.46,1.17.94.94,0,0,1-1.22.5C208.77,399.51,200.43,398.53,196.68,403.81Z" style="fill:#fafafa"></path><path d="M212,394.33a.93.93,0,0,1-.83.07c-1.45-.59-8.86-1.48-12.88,2.74a3.18,3.18,0,0,1,.53-2.75c4.77-3.15,11.42-2.36,13.12-1.67a.88.88,0,0,1,.46,1.18A1,1,0,0,1,212,394.33Z" style="fill:#fafafa"></path><path d="M186.53,382.57s-2.85,22.65-6.65,31.55-5.77,13.19-11.22,20c-1.19,1.49-3.92,4.28-4.89,5.48a2.25,2.25,0,0,0,.37,3.46c2.64,2.33,13.44,2.48,19.3-2.28s11-14.63,14.43-18.41a57.17,57.17,0,0,0,3.67-4.41c1.11-1.48.74-2.82.78-4.43,0-.78-.18-2.89-.18-2.89.68-3.82,2.68-9.86,3.72-13.6Z" style="fill:#ffa8a7"></path><path d="M204.94,427.58a8.16,8.16,0,0,1-.17,2.75c-.54,1.49-5.87,4.9-7.91,6.1s-4.23,2.86-5.9,7.3c-1.8,4.75-5.77,8.36-10.42,10.93a34.82,34.82,0,0,1-20.37,3.67c-8.71-.9-9.78-5.92-9.78-5.92s-.81-4.73,1.27-5.64S204.94,427.58,204.94,427.58Z" style="fill:#37474f"></path><path d="M202.41,409.47c.23.09.68.2,1,1.18.11.37.05,4.43.44,6.75.42,2.47,2,7.06,1.12,10.18-4.2,4.95-11.25,6.65-14.34,11.69s-5.84,11.27-16.92,14.35-19.89.14-22.21-2.91-.65-6.2,6.27-10.64c7.34-4.7,16.49-17.77,16.5-17.77a53.78,53.78,0,0,0,3.39-5.77c1-1.9,1.31-4.25,2-6.29a4.76,4.76,0,0,1,1.55-2.57,5,5,0,0,1,2.95-.61,21.94,21.94,0,0,1,4.86.36,7.37,7.37,0,0,1,4.16,2.4,34.81,34.81,0,0,0,2,2.91,4.28,4.28,0,0,0,4.37,1,3.65,3.65,0,0,0,2.69-3.27A9.65,9.65,0,0,0,202.41,409.47Z" style="fill:#478BAE"></path><path d="M202.41,409.47c.23.09.68.2,1,1.18.11.37.05,4.43.44,6.75.42,2.47,2,7.06,1.12,10.18-4.2,4.95-11.25,6.65-14.34,11.69s-5.84,11.27-16.92,14.35-19.89.14-22.21-2.91-.65-6.2,6.27-10.64c7.34-4.7,16.49-17.77,16.5-17.77a53.78,53.78,0,0,0,3.39-5.77c1-1.9,1.31-4.25,2-6.29a4.76,4.76,0,0,1,1.55-2.57,5,5,0,0,1,2.95-.61,21.94,21.94,0,0,1,4.86.36,7.37,7.37,0,0,1,4.16,2.4,34.81,34.81,0,0,0,2,2.91,4.28,4.28,0,0,0,4.37,1,3.65,3.65,0,0,0,2.69-3.27A9.65,9.65,0,0,0,202.41,409.47Z" style="opacity:0.4"></path><path d="M180.76,450.39s-.44-7.89-9.24-11.59-13.76-.52-16.21,1.54c-2.93,2.46-7,7.43-4.06,10.6,3.17,3.43,7.94,4.81,16.61,4.27S180.76,450.39,180.76,450.39Z" style="fill:#fafafa"></path><path d="M190.41,423.21a1,1,0,0,1-.8-.34c-1.06-1.27-7.61-5.83-13.45-3.72-.36-.66.09-1.41,1.26-2.24,6.22-1,12.44,3.25,13.72,4.78A.91.91,0,0,1,191,423,.94.94,0,0,1,190.41,423.21Z" style="fill:#fafafa"></path><path d="M173.08,423.89a3,3,0,0,1,1.53-2.2c5.95-.57,11.71,3.43,12.95,4.9a.91.91,0,0,1-.16,1.31,1,1,0,0,1-.57.21,1,1,0,0,1-.8-.35C185,426.53,178.78,422.22,173.08,423.89Z" style="fill:#fafafa"></path><path d="M164.45,434.25a5.42,5.42,0,0,1,2.47-2.7c6.13-.87,12.2,3.31,13.47,4.82a.9.9,0,0,1-.16,1.31,1,1,0,0,1-.57.21,1,1,0,0,1-.8-.34C177.74,436.21,170.5,431.21,164.45,434.25Z" style="fill:#fafafa"></path><path d="M183.24,433a1,1,0,0,1-.8-.35c-1.05-1.25-7.47-5.71-13.25-3.77a3.35,3.35,0,0,1,1.84-2.3C177,426,182.74,430,184,431.48a.9.9,0,0,1-.15,1.31A1,1,0,0,1,183.24,433Z" style="fill:#fafafa"></path><path d="M226.91,249.33c-9,7-35.21,28-47.9,40.47-3.66,3.6-8.08,7.25-6.07,19,2.3,13.46,16.31,58.74,16.31,58.74l77.28-99Z" style="fill:#455a64"></path><path d="M191,353.07c11.48-10.21,47.72-71.43,47.72-71.43l-1.61-.3c-8.65-4.07-11.29-14.77-11.29-14.77-1.17,4.81,1.62,11.4,4.46,15.15-2.92,2.69-17.21,15.58-28.69,25.25-2.88,2.43-5.81,5.4-6.66,10.75C192.92,330.53,190.66,350.5,191,353.07Z" style="fill:#37474f"></path><path d="M231.13,252.47h0l68.31,10.27c-3,16.37-5.5,23.36-8.18,27.36-4,6-9.76,12.35-26.34,21.66-16.86,9.46-31.8,18.32-35.74,20.39-3,1.56-4.48,8-5.54,15.91-1.11,8.27-1.07,13.54-8.52,31.11-7.3,17.2-9.82,21.23-9.82,21.23s-12.26,1.76-20.72-5.11c0,0,8.87-58.34,10.84-68.86,1.1-5.88,1-8.95,8-15.63,6-5.73,33.73-29.46,33.73-29.46S224.66,268.69,231.13,252.47Z" style="fill:#455a64"></path></g><g id="freepik--Top--inject-140"><path d="M246.72,164.41c-5.15.41-10.46.17-14.77,5.32-3.92,4.67-8.78,9.38-15.55,30.83-3.65,11.56-8.55,28.91-4.48,33.42s15.13,3.76,15.13,3.76l4.85-12.27Z" style="fill:#478BAE"></path><path d="M246.72,164.41c-5.15.41-10.46.17-14.77,5.32-3.92,4.67-8.78,9.38-15.55,30.83-3.65,11.56-8.55,28.91-4.48,33.42s15.13,3.76,15.13,3.76l4.85-12.27Z" style="opacity:0.2"></path><path d="M233.1,215.37a31.55,31.55,0,0,0-16.7,7.09s2.86-7.63,16.88-10.66Z" style="opacity:0.2"></path><path d="M267.39,163c10.28,1.43,27.38,6,32.52,7.4,1.61,2.88,2.92,12.1,3,20,.26,19.4.17,28.18-.48,49.5a222.14,222.14,0,0,1-3.78,32.43c-24.89,8-66.74-5.59-74.48-22,4.41-6.54,7.56-7.5,9.32-53.68.79-20.72,8.09-30.07,13.21-32.31C255.12,162.67,267.39,163,267.39,163Z" style="fill:#f5f5f5"></path><path d="M302.5,238.37l-70.32-17.6h0c-1,11.94-2.16,18.09-3.58,22,8.2.42,18.73-1.29,18.73-1.29s11.33,10,35.17,15.89c5.48,1.35,13.66.75,18.54-.07h0c.65-5.23,1.23-11.3,1.41-17.34C302.47,239.41,302.49,238.89,302.5,238.37Z" style="fill:#e0e0e0"></path><path d="M246.72,217.57c-2.56-4.8-6-10.92-7.63-14.36s-2-4-4.63-5.77a75.39,75.39,0,0,0-7.8-4.58c-1.37-.69-1.72.95-.74,3,.86,1.79,5.09,4.2,5.09,4.2s-3.74-.24-5.45-.22c-1.2,0-2.83.82-4.74,1.64s-2.07,1.46-1.6,2.06,1.32,1.13,3.26.91,3.72-.58,3.72-.58l4.22.42.47.57s-2.84.36-5.12.91a11.27,11.27,0,0,0-4.45,2.15c-1.73,1.11-2.8,1.66-2.88,2.12s.14,1.75,2.44,1.54a11.62,11.62,0,0,0,4.44-1.55l4.92-.63,2.31,1.92s-2.78.17-4.4.38a20.42,20.42,0,0,0-5.17,1.72c-.65.4.29,1.84,1.56,2.22s4.6-.85,6.39-.53a37.8,37.8,0,0,1,5,1.58Z" style="fill:#ffa8a7"></path><path d="M246.72,217.57l-.64-1.2c-3.65-.54-8.14-1.15-10.43-1.49a21.66,21.66,0,0,0-6.12.2h0a5.41,5.41,0,0,1,1.4,0,37.8,37.8,0,0,1,5,1.58Z" style="fill:#f28f8f"></path><path d="M239.61,208.34a19.06,19.06,0,0,1-2-2.4c-.61-.84-1.13-1.75-1.72-2.58a6.65,6.65,0,0,0-2.06-2.16,9.41,9.41,0,0,0-2.83-1.15,7.19,7.19,0,0,1,3,.83,6.67,6.67,0,0,1,2.27,2.21c.57.88,1.09,1.77,1.62,2.65S239,207.48,239.61,208.34Z" style="fill:#f28f8f"></path><path d="M240.18,211.54a16.19,16.19,0,0,1-2.42-1.66c-.76-.61-1.47-1.28-2.2-1.92s-1.42-1.35-2.13-2a3.85,3.85,0,0,0-2.54-1.14,3.48,3.48,0,0,1,2.77.85c.8.59,1.47,1.28,2.22,1.9C237.31,208.94,238.68,210.28,240.18,211.54Z" style="fill:#f28f8f"></path><path d="M237.59,213.53c-.88-.39-1.63-1-2.44-1.38a6.21,6.21,0,0,0-1.24-.54,8.18,8.18,0,0,0-1.36-.3,3.37,3.37,0,0,1,1.45-.06,4.92,4.92,0,0,1,1.38.48A9.18,9.18,0,0,1,237.59,213.53Z" style="fill:#f28f8f"></path><path d="M282.5,227.42c-2.31-.56-5.91-1.39-10.9-2.4-4.31-.87-22.37-6.09-26.71-6.75l-15.36,9.2c3.75,2.72,14.05,7.81,19.4,10.22,7.65,3.43,16.47,7.36,24.37,10.51C273.69,241.12,278.06,231.34,282.5,227.42Z" style="fill:#ffa8a7"></path><path d="M244.89,218.27l-15.36,9.2c3.75,2.72,14.05,7.81,19.4,10.22l5,2.24c7.34-2.15,16.68-6.4,25.37-8.82l.2-.15a19.18,19.18,0,0,1,3-3.54c-2.31-.56-5.91-1.39-10.9-2.4C267.29,224.15,249.23,218.93,244.89,218.27Z" style="fill:#f28f8f"></path><path d="M312.87,187.22c-1.14-9.25-4.32-14.64-13-16.8-8.33,2.59-11.39,17.13-12.53,33.12l-1.78,24.68s-1-.29-3.1-.8c-4.44,3.92-9.68,14-10.08,21.11A74.51,74.51,0,0,0,291.91,254c8.87.83,12.55.52,14.81-7.46,3.46-12.15,4.41-24.44,5.09-33.74C312.87,198.51,313.65,193.63,312.87,187.22Z" style="fill:#478BAE"></path><path d="M312.87,187.22c-1.14-9.25-4.32-14.64-13-16.8-8.33,2.59-11.39,17.13-12.53,33.12l-1.78,24.68s-1-.29-3.1-.8c-4.44,3.92-9.68,14-10.08,21.11A74.51,74.51,0,0,0,291.91,254c8.87.83,12.55.52,14.81-7.46,3.46-12.15,4.41-24.44,5.09-33.74C312.87,198.51,313.65,193.63,312.87,187.22Z" style="opacity:0.2"></path><path d="M279.3,231.11c2.89-.58,5.07-.82,6.14-.54,5.6,1.47,10.25,4.78,11.68,8.49,0,0-.1-7-11.52-10.84l-3.5-.42A23.74,23.74,0,0,0,279.3,231.11Z" style="opacity:0.2"></path><path d="M278.49,230c-6.07,1.64-33.49,8.22-54.67,7.78-1.5-2.54-1.62-7.21-.1-11.35,3.34-9.11,8-10.88,8.71-11,45.46,5.5,53.39,9.77,53.39,9.77l-.22,3S284.56,228.36,278.49,230Z" style="fill:#ffa8a7"></path><path d="M298.7,127.69c3-6.34.44-14.91-2.8-19-4.68-5.9-12.13-8.57-23.47-8.16-8.62.32-17.18,3.68-19,12.47-7,1.89-6.47,13.28-4.88,18.33,3.24,10.27,9.88,19.3,9.87,24.5Z" style="fill:#263238"></path><path d="M298.09,151.62c-1.49,4.88-4.42,8.41-9,9a38.21,38.21,0,0,1-7.17-.14l-.41,6.65c-8.61,14-32,12.06-23.83-.66l.6-20.19s-2.86,3.09-7.37,0a10,10,0,0,1-2.8-12.32c2.39-4.74,6.89-2.64,8.25-1.15s2.92,4.27,4.1,3.92a4.25,4.25,0,0,0,2.89-2.81c.87-2,1.52-4.67,1.72-9.25a10.43,10.43,0,0,0,3.29-2.44c2-2.12,2.23-4.72,2.38-7.07,9.89-2.83,22.37-1.26,26.37,2,2.25,4.19,2.09,13.81,2.33,19.36C299.73,142.53,299.34,147.54,298.09,151.62Z" style="fill:#ffa8a7"></path><path d="M281.26,126.37a3.49,3.49,0,0,1-1.79,1.74,2.29,2.29,0,0,1-1.19,0,3.85,3.85,0,0,0-1.2-.22c-.28,0-.52.57-.27.76a2.38,2.38,0,0,0,1.47.44,2.55,2.55,0,0,0,1.33-.33,3.06,3.06,0,0,0,1.78-2.41C281.4,126.26,281.29,126.31,281.26,126.37Z" style="fill:#b16668"></path><path d="M288.89,126a3.42,3.42,0,0,0,1.78,1.73,2.19,2.19,0,0,0,1.19,0,3.84,3.84,0,0,1,1.2-.21c.28,0,.53.57.28.76a2.42,2.42,0,0,1-1.48.43,2.47,2.47,0,0,1-1.33-.32,3.35,3.35,0,0,1-1.77-2.41C288.74,125.88,288.85,125.92,288.89,126Z" style="fill:#b16668"></path><path d="M284.15,149.31a5.48,5.48,0,0,0-2.75-2.37,6.46,6.46,0,0,0-3.84-.32c-.31.07-.36.43,0,.46a9.35,9.35,0,0,1,3.93,1,7.88,7.88,0,0,1,2.56,2.17c.09.09.33.31.42.09a.36.36,0,0,0,0-.23A3.78,3.78,0,0,0,284.15,149.31Z" style="fill:#b16668"></path><path d="M281.94,160.47c-5-.41-15.07-3-17.69-5.88s-3.62-8.64-3.62-8.64.23,7.26,2.22,10.51,7.23,4.78,10.4,5.65a72.82,72.82,0,0,0,8.49,1.48Z" style="fill:#f28f8f"></path><path d="M279.38,133.93a2.07,2.07,0,1,1-2-2.21A2.12,2.12,0,0,1,279.38,133.93Z" style="fill:#263238"></path><path d="M274.28,126.5l5.51,1.64c-.44,1.36-2.16,1.68-3.5,1.29S273.83,127.86,274.28,126.5Z" style="fill:#263238"></path><path d="M290.63,128l4.8-1.75A2.46,2.46,0,0,1,294,129.5,2.69,2.69,0,0,1,290.63,128Z" style="fill:#263238"></path><path d="M295.24,133.93a2.1,2.1,0,0,1-2.12,2.1,2.16,2.16,0,1,1,2.12-2.1Z" style="fill:#263238"></path><polygon points="284.77 129.34 285.89 144.29 293.95 142.08 284.77 129.34" style="fill:#f28f8f"></polygon></g><g id="freepik--angry-sticker--inject-140"><path d="M255.76,118.45a2.92,2.92,0,0,0-.43-.72c-.17-.21-.4-.47-.69-.46a.17.17,0,0,0-.12.22,7.56,7.56,0,0,0,.58.69,2.64,2.64,0,0,1,.35.69,1.9,1.9,0,0,1-.1,1.58c-.71,1.17-2.21.76-3.22.3,0,0-.09,0-.11,0a.09.09,0,0,0,0,.07,2.11,2.11,0,0,0,1.13.79,2.42,2.42,0,0,0,2.06-.21A2.53,2.53,0,0,0,255.76,118.45Z" style="fill:#478BAE"></path><path d="M261.25,118.25a.14.14,0,0,0-.09,0c-.08,0-.13.1-.17.17a3.27,3.27,0,0,1-1.18,1.24,1.81,1.81,0,0,1-1.66.1,1.45,1.45,0,0,1-.56-.48,1,1,0,0,1-.11-.65,5.63,5.63,0,0,1,.47-2c.06-.13,0-.33-.17-.18a2.42,2.42,0,0,0-.3.35,2,2,0,0,0-.24.52,4.59,4.59,0,0,0-.24.9,2.05,2.05,0,0,0,.4,1.76,2.13,2.13,0,0,0,1.54.52,2.51,2.51,0,0,0,1.51-.57,2.74,2.74,0,0,0,.68-.87C261.18,119,261.44,118.33,261.25,118.25Z" style="fill:#478BAE"></path><path d="M261.85,122.38a2.78,2.78,0,0,0-3.44-.6,2.3,2.3,0,0,0-.36,3.16,2.63,2.63,0,0,0,.67.66,2.4,2.4,0,0,0,.66.33s.06,0,.09,0,0-.13,0-.18c-.69-.66-1.7-1.93-1.09-2.94a1.71,1.71,0,0,1,1.4-.71,2.63,2.63,0,0,1,.89.13c.37.11.7.3,1.05.43C261.81,122.72,261.94,122.48,261.85,122.38Z" style="fill:#478BAE"></path><path d="M256.6,125.94a2.9,2.9,0,0,0,.28-1.9,1.54,1.54,0,0,0-.46-.88,2.16,2.16,0,0,0-.89-.49,2.12,2.12,0,0,0-1.36.11,4.08,4.08,0,0,0-1.08.81,2.11,2.11,0,0,0-.25.27,1.34,1.34,0,0,0-.22.36c.1.06.21,0,.3-.1a4.09,4.09,0,0,1,1.76-.92,1.35,1.35,0,0,1,.53,0,1.38,1.38,0,0,1,.79.39,1.73,1.73,0,0,1,.3,1.64c-.06.27-.15.53-.23.8a5,5,0,0,0-.23.65.08.08,0,0,0,0,.1s.08,0,.12,0a1.2,1.2,0,0,0,.28-.27A3.84,3.84,0,0,0,256.6,125.94Z" style="fill:#478BAE"></path></g></g></g><g id="freepik--Clouds--inject-140"><g id="freepik--clouds--inject-140"><path d="M288.69,40.52h-6.23a26.11,26.11,0,0,0-49.88-5.84h-6.23A16.31,16.31,0,0,0,210,51v3.6h-3.39a8.72,8.72,0,1,0,0,17.43h82a15.76,15.76,0,0,0,0-31.51Z" style="fill:#37474f"></path><path d="M347,78.15h-3.83a16,16,0,0,0-30.65-3.59h-3.83a10,10,0,0,0-10,10V86.8h-2.08a5.36,5.36,0,1,0,0,10.71H347a9.68,9.68,0,1,0,0-19.36Z" style="fill:#455a64"></path><polygon points="242.66 43.97 254.87 43.97 244.99 59.33 252.13 59.33 234.16 81.55 240.74 64.96 233.47 64.96 242.66 43.97" style="fill:#478BAE"></polygon><polygon points="242.66 43.97 254.87 43.97 244.99 59.33 252.13 59.33 234.16 81.55 240.74 64.96 233.47 64.96 242.66 43.97" style="fill:#fff;opacity:0.4"></polygon><polygon points="260.47 64.78 270.38 64.78 262.36 77.25 268.15 77.25 253.56 95.3 258.91 81.82 253 81.82 260.47 64.78" style="fill:#478BAE"></polygon><polygon points="260.47 64.78 270.38 64.78 262.36 77.25 268.15 77.25 253.56 95.3 258.91 81.82 253 81.82 260.47 64.78" style="fill:#fff;opacity:0.4"></polygon><polygon points="329.24 90.02 339.15 90.02 331.13 102.49 336.92 102.49 322.33 120.54 327.68 107.06 321.77 107.06 329.24 90.02" style="fill:#478BAE"></polygon><polygon points="329.24 90.02 339.15 90.02 331.13 102.49 336.92 102.49 322.33 120.54 327.68 107.06 321.77 107.06 329.24 90.02" style="fill:#fff;opacity:0.4"></polygon></g></g></svg>